<svg width="18" height="842" viewBox="0 0 18 842" fill="none" xmlns="http://www.w3.org/2000/svg">
<path d="M-0.1 285.8C-0.1 285.4 -0.1 285.1 -0.1 284.7C0.1 284.8 0.2 284.9 0.4 285C3 282.4 5.6 279.8 8.1 277.3C6.9 276.1 5.8 275 4.6 273.8C3.3 275.1 1.8 276.6 0.4 278C0.2 277.9 0.1 277.8 -0.1 277.7C-0.1 277.3 -0.1 276.9 -0.1 276.5C0.1 276.6 0.2 276.8 0.4 276.8C1.6 275.6 2.8 274.4 4 273.2C2.9 272.1 1.7 270.9 0.5 269.7C0.3 269.9 0.2 270 0 270.2C0 269.5 0 268.8 0 268.1C0.1 268.2 0.2 268.2 0.4 268.3C0.4 268 0.4 267.9 0.4 267.7C0.4 265.7 0.4 263.6 0.4 261.6C0.4 261.3 0.3 261.1 0 260.9C0 260.5 0 260.2 0 259.8C0.1 259.8 0.2 259.9 0.4 260C0.4 259.8 0.4 259.6 0.4 259.5C0.4 257.5 0.4 255.5 0.4 253.5C0.4 253.2 0.4 252.9 0 252.7C0 252.3 0 252 0 251.6C0.1 251.6 0.2 251.7 0.4 251.8C0.4 251.6 0.4 251.4 0.4 251.2C0.4 249.2 0.4 247.2 0.4 245.2C0.4 244.9 0.4 244.5 0 244.4C0 244 0 243.7 0 243.3C0.1 243.3 0.2 243.4 0.3 243.5C0.3 241.3 0.3 239.1 0.3 236.9C0.1 236.9 0.1 237 0 237.1C0 236.4 0 235.8 0 235.1C0.2 235.3 0.4 235.5 0.6 235.6C1.8 234.4 3 233.2 4.1 232.1C2.8 230.8 1.4 229.4 0.1 227.9C0.1 227.5 0.1 227.2 0.1 226.8C0.2 226.9 0.4 227 0.5 227.1C1.8 228.4 3.2 229.8 4.5 231.1C4.6 231.2 4.7 231.3 4.8 231.4C6 230.2 7.2 229 8.4 227.8C8.1 227.5 7.7 227.2 7.4 226.9C5 224.5 2.5 222 0.1 219.6C0.1 219.2 0.1 218.9 0.1 218.5C0.3 218.6 0.4 218.7 0.5 218.8C3.2 221.5 5.9 224.2 8.7 227C8.8 227.1 8.9 227.2 9 227.3C10.2 226.1 11.4 224.9 12.6 223.8C8.4 219.6 4.3 215.5 0.1 211.3C0.1 210.9 0.1 210.6 0.1 210.2C0.3 210.3 0.4 210.4 0.6 210.6C4.7 214.7 8.8 218.8 12.9 222.9C13 223 13.2 223.1 13.2 223.2C14.4 222 15.6 220.8 16.7 219.7C11.4 214.4 6 209 0.6 203.6C0.5 203.7 0.3 203.8 0.2 203.9C0.2 203.5 0.2 203.2 0.2 202.8C0.2 202.7 0.3 202.5 0.3 202.4C0.3 200.2 0.3 198 0.3 195.9C0.3 195.8 0.3 195.6 0.2 195.5C0.2 194.8 0.2 194.1 0.2 193.4C0.4 193.6 0.5 193.7 0.7 193.8C4.7 189.8 8.7 185.8 12.6 181.9C11.5 180.7 10.3 179.6 9.1 178.4C6.4 181.1 3.6 183.9 0.8 186.8C0.6 186.6 0.5 186.5 0.3 186.4C0.3 186 0.3 185.7 0.3 185.3C0.5 185.4 0.6 185.5 0.8 185.6C3.4 183 6 180.4 8.5 177.9C7.3 176.7 6.2 175.6 5 174.4C3.7 175.7 2.2 177.2 0.8 178.6C0.6 178.5 0.5 178.4 0.3 178.3C0.3 177.9 0.3 177.5 0.3 177.1C0.5 177.2 0.6 177.4 0.8 177.4C2 176.2 3.2 175 4.4 173.8C3.3 172.7 2.1 171.5 0.9 170.3C0.7 170.5 0.6 170.6 0.4 170.8C0.4 170.1 0.4 169.4 0.4 168.7C0.5 168.8 0.6 168.8 0.8 168.9C0.8 168.6 0.8 168.5 0.8 168.3C0.8 166.3 0.8 164.2 0.8 162.2C0.8 161.9 0.7 161.7 0.4 161.5C0.4 161.1 0.4 160.8 0.4 160.4C0.5 160.4 0.6 160.5 0.8 160.6C0.8 160.4 0.8 160.2 0.8 160.1C0.8 158.1 0.8 156.1 0.8 154.1C0.8 153.8 0.8 153.5 0.4 153.3C0.4 152.9 0.4 152.6 0.4 152.2C0.5 152.2 0.6 152.3 0.8 152.4C0.8 152.2 0.8 152 0.8 151.8C0.8 149.8 0.8 147.8 0.8 145.8C0.8 145.5 0.8 145.1 0.4 145C0.4 144.6 0.4 144.3 0.4 143.9C0.5 143.9 0.6 144 0.7 144.1C0.7 141.9 0.7 139.7 0.7 137.5C0.5 137.5 0.5 137.6 0.4 137.7C0.4 137 0.4 136.4 0.4 135.7C0.6 135.9 0.8 136.1 1 136.2C2.2 135 3.4 133.8 4.5 132.7C3.2 131.4 1.8 130 0.5 128.5C0.5 128.1 0.5 127.8 0.5 127.4C0.6 127.5 0.8 127.6 0.9 127.7C2.2 129 3.6 130.4 4.9 131.7C5 131.8 5.1 131.9 5.2 132C6.4 130.8 7.6 129.6 8.8 128.4C8.5 128.1 8.1 127.8 7.8 127.5C5.4 125.1 2.9 122.6 0.5 120.2C0.5 119.8 0.5 119.5 0.5 119.1C0.7 119.2 0.8 119.3 0.9 119.4C3.6 122.1 6.3 124.8 9.1 127.6C9.2 127.7 9.3 127.8 9.4 127.9C10.6 126.7 11.8 125.5 13 124.3C8.8 120.1 4.6 115.9 0.4 111.8C0.4 111.4 0.4 111.1 0.4 110.7C0.6 110.8 0.7 110.9 0.9 111.1C5 115.2 9.1 119.3 13.2 123.4C13.3 123.5 13.5 123.6 13.5 123.7C14.7 122.5 15.9 121.3 17 120.2C11.6 114.9 6.3 109.5 0.9 104.2C0.8 104.3 0.6 104.4 0.5 104.5C0.5 104.1 0.5 103.8 0.5 103.4C0.5 103.3 0.6 103.1 0.6 103C0.6 100.8 0.6 98.6 0.6 96.5C0.6 96.4 0.6 96.2 0.5 96.1C0.5 95.4 0.5 94.7 0.5 94C0.7 94.2 0.8 94.3 1 94.4C5 90.4 9 86.4 12.9 82.5C11.8 81.3 10.6 80.2 9.4 79C6.7 81.7 3.9 84.5 1.1 87.4C0.9 87.2 0.8 87.1 0.6 87C0.6 86.6 0.6 86.3 0.6 85.9C0.8 86 0.9 86.1 1.1 86.2C3.7 83.6 6.3 81 8.8 78.5C7.6 77.3 6.5 76.2 5.3 75C4 76.3 2.5 77.8 1.1 79.2C0.9 79.1 0.8 79 0.6 78.9C0.6 78.5 0.6 78.1 0.6 77.7C0.8 77.8 0.9 78 1.1 78C2.3 76.8 3.5 75.6 4.7 74.4C3.6 73.3 2.4 72.1 1.2 70.9C1 71.1 0.9 71.2 0.7 71.4C0.7 70.7 0.7 70 0.7 69.3C0.8 69.4 0.9 69.4 1.1 69.5C1.1 69.2 1.1 69.1 1.1 68.9C1.1 66.9 1.1 64.8 1.1 62.8C1.1 62.5 1 62.3 0.7 62.1C0.7 61.7 0.7 61.4 0.7 61C0.8 61 0.9 61.1 1.1 61.2C1.1 61 1.1 60.8 1.1 60.7C1.1 58.7 1.1 56.7 1.1 54.7C1.1 54.4 1.1 54.1 0.7 53.9C0.7 53.5 0.7 53.2 0.7 52.8C0.8 52.8 0.9 52.9 1.1 53C1.1 52.8 1.1 52.6 1.1 52.4C1.1 50.4 1.1 48.4 1.1 46.4C1.1 46.1 1.1 45.7 0.7 45.6C0.7 45.2 0.7 44.9 0.7 44.5C0.8 44.5 0.9 44.6 1 44.7C1 42.5 1 40.3 1 38.1C0.8 38.1 0.8 38.2 0.7 38.3C0.7 37.6 0.7 37 0.7 36.3C0.9 36.5 1.1 36.7 1.3 36.8C2.5 35.6 3.7 34.4 4.8 33.3C3.5 32 2.1 30.6 0.8 29.1C0.8 28.7 0.8 28.4 0.8 28C0.9 28.1 1.1 28.2 1.2 28.3C2.5 29.6 3.9 31 5.2 32.3C5.3 32.4 5.4 32.5 5.5 32.6C6.7 31.4 7.9 30.2 9.1 29C8.8 28.7 8.4 28.4 8.1 28.1C5.6 25.6 3.2 23.2 0.8 20.7C0.8 20.3 0.8 20 0.8 19.6C0 18.9 0.2 19 0.3 19.1C3 21.8 5.7 24.5 8.5 27.2C8.6 27.3 8.7 27.4 8.8 27.5C10 26.3 11.2 25.1 12.4 24C8.2 19.8 4 15.7 -0.1 11.6C-0.1 11.2 -0.1 10.9 -0.1 10.5C0.1 10.6 0.2 10.7 0.4 10.9C4.5 15 8.6 19.1 12.7 23.2C12.8 23.3 13 23.4 13 23.5C14.2 22.3 15.4 21.1 16.5 20C11 14.6 5.7 9.2 0.3 3.9C0.2 3.9 7.45058e-09 4 -0.1 4.2C-0.1 3.1 -0.1 2.1 -0.1 1C0.2 1 0.5 1 0.8 1C0.8 1.5 0.8 2.1 0.8 2.6C0.8 2.8 0.9 3.1 1.1 3.3C1.9 4.2 2.9 5.1 3.8 6C3.8 6 3.9 6.1 4.1 6.2C4.1 4.4 4.1 2.7 4.1 1C4.4 1 4.6 1 4.9 1C4.9 2.9 4.9 4.9 4.9 6.8C5 7 5.1 7.2 5.2 7.4C6.1 8.3 7 9.2 8 10.1C8.1 10.2 8.2 10.2 8.3 10.3C8.3 9 8.3 7.8 8.3 6.7C8.3 4.8 8.3 2.9 8.3 1C8.6 1 8.8 1 9.1 1C9.1 4.4 9.1 7.7 9.1 11C9.1 11.2 9.2 11.4 9.3 11.5C10.2 12.4 11.1 13.3 12 14.2C12.1 14.3 12.2 14.3 12.3 14.4C12.3 14.1 12.3 13.9 12.3 13.7C12.3 9.6 12.3 5.5 12.3 1.4C12.3 1.2 12.3 1 12.3 0.8C12.5 0.8 12.8 0.8 13 0.8C13 1 13 1.2 13 1.5C13 5.9 13 10.3 13 14.8C13 15 13 15.3 13.2 15.5C14.3 16.6 15.4 17.7 16.5 18.8C16.5 19.5 16.5 20.2 16.5 20.9C15.5 21.9 14.6 22.9 13.6 24C14.5 24.9 15.5 25.9 16.5 26.9C16.5 27.3 16.5 27.6 16.5 28C15.8 27.3 15.1 26.7 14.4 26C13.9 25.5 13.4 25 13 24.6C11.8 25.8 10.6 27 9.5 28.1C9.5 28.1 9.6 28.2 9.7 28.3C11.9 30.5 14.1 32.7 16.3 34.9C16.4 35 16.5 35 16.6 35.1C16.6 35.5 16.6 35.9 16.6 36.3C16.5 36.2 16.3 36.1 16.2 36C13.9 33.7 11.6 31.4 9.3 29.1C9.1 28.9 9.1 28.8 9 28.7C7.7 30 6.6 31.2 5.4 32.3C5.4 32.3 5.5 32.4 5.6 32.5C9.2 36.1 12.8 39.7 16.3 43.2C16.4 43.3 16.5 43.4 16.6 43.4C16.6 43.8 16.6 44.2 16.6 44.6C16.4 44.4 16.3 44.3 16.2 44.2C12.5 40.5 8.9 36.9 5.2 33.2C5.1 33 5 32.9 4.9 32.8C3.7 34 2.5 35.2 1.4 36.3C1.5 36.4 1.6 36.5 1.7 36.6C5.4 40.3 9 43.9 12.7 47.6C14 48.9 15.4 50.3 16.7 51.6C16.7 52 16.7 52.3 16.7 52.7C16.6 52.6 16.4 52.5 16.3 52.4C14.1 50.2 12 48.1 9.8 45.9C9.7 45.8 9.6 45.6 9.6 45.4C9.6 45.4 9.5 45.5 9.4 45.6C9.4 50.4 9.4 55.1 9.4 59.9C9.4 59.9 9.5 59.9 9.5 60C9.6 59.9 9.7 59.7 9.8 59.6C12 57.4 14.1 55.3 16.2 53.2C16.3 53.1 16.5 53 16.6 52.9C16.6 53.3 16.6 53.6 16.6 54C16.4 54.2 16.3 54.3 16.2 54.4C13.7 56.9 11.2 59.4 8.7 61.9C6.3 64.3 4 66.6 1.6 69C1.5 69.1 1.4 69.3 1.3 69.3C2.5 70.5 3.7 71.7 4.9 72.9C5 72.7 5.1 72.6 5.2 72.4C8.9 68.7 12.5 65 16.2 61.4C16.3 61.3 16.5 61.2 16.6 61.1C16.6 61.5 16.6 61.9 16.6 62.3C16.5 62.4 16.4 62.5 16.3 62.6C12.8 66.1 9.2 69.7 5.7 73.2C5.6 73.3 5.5 73.4 5.4 73.5C6.6 74.7 7.8 75.9 8.9 77C9 76.9 9.1 76.8 9.3 76.7C11.6 74.4 13.9 72.1 16.2 69.8C16.3 69.7 16.5 69.6 16.6 69.5C16.6 69.9 16.6 70.3 16.6 70.7C16.5 70.8 16.4 70.9 16.3 70.9C14.1 73.1 11.9 75.3 9.7 77.5C9.6 77.6 9.5 77.7 9.5 77.7C10.7 78.9 11.9 80.1 13 81.2C13.8 80.4 14.8 79.4 15.7 78.5C16 78.2 16.2 78 16.5 77.8C16.5 78.2 16.5 78.5 16.5 78.9C15.5 79.9 14.5 80.9 13.6 81.8C14.6 82.8 15.6 83.8 16.5 84.8C16.5 85.2 16.5 85.5 16.5 85.9C16.4 85.8 16.2 85.7 16.1 85.6C15.2 84.7 14.3 83.8 13.4 82.9C13.3 82.8 13.2 82.7 13 82.6C13 82.9 13 83.1 13 83.3C13 89.2 13 95.1 13 101C13 105.5 13 110 13 114.6C13 114.8 13 115.1 13.2 115.3C14.3 116.4 15.4 117.5 16.5 118.6C16.5 119.3 16.5 120 16.5 120.7C15.5 121.7 14.6 122.7 13.6 123.8C14.5 124.7 15.5 125.7 16.5 126.7C16.5 127.1 16.5 127.4 16.5 127.8C15.8 127.1 15.1 126.5 14.4 125.8C13.9 125.3 13.4 124.8 13 124.4C11.8 125.6 10.6 126.8 9.5 127.9C9.5 127.9 9.6 128 9.7 128.1C11.9 130.3 14.1 132.5 16.3 134.7C16.4 134.8 16.5 134.8 16.6 134.9C16.6 135.3 16.6 135.7 16.6 136.1C16.5 136 16.3 135.9 16.2 135.8C13.9 133.5 11.6 131.2 9.3 128.9C9.1 128.7 9.1 128.6 9 128.5C7.7 129.8 6.6 131 5.4 132.1C5.4 132.1 5.5 132.2 5.6 132.3C9.2 135.9 12.8 139.5 16.3 143C16.4 143.1 16.5 143.2 16.6 143.2C16.6 143.6 16.6 144 16.6 144.4C16.4 144.2 16.3 144.1 16.2 144C12.5 140.3 8.9 136.7 5.2 133C5 132.8 4.9 132.7 4.9 132.7C3.7 133.9 2.5 135.1 1.4 136.2C1.5 136.3 1.6 136.4 1.7 136.5C5.4 140.2 9 143.8 12.7 147.5C14 148.8 15.4 150.2 16.7 151.5C16.7 151.9 16.7 152.2 16.7 152.6C16.6 152.5 16.4 152.4 16.3 152.3C14.1 150.1 12 148 9.8 145.8C9.7 145.7 9.6 145.5 9.6 145.3C9.6 145.3 9.5 145.4 9.4 145.5C9.4 150.3 9.4 155 9.4 159.8H9.5C9.6 159.7 9.7 159.6 9.8 159.5C12 157.3 14.1 155.2 16.2 153.1C16.3 153 16.5 152.9 16.6 152.8C16.6 153.2 16.6 153.5 16.6 153.9C16.4 154.1 16.3 154.2 16.2 154.3C13.7 156.8 11.2 159.3 8.7 161.8C6.3 164.2 4 166.5 1.6 168.9C1.5 169 1.4 169.2 1.3 169.2C2.5 170.4 3.7 171.6 4.9 172.8C5 172.6 5.1 172.5 5.2 172.3C8.9 168.6 12.5 164.9 16.2 161.3C16.3 161.2 16.5 161.1 16.6 161C16.6 161.4 16.6 161.8 16.6 162.2C16.5 162.3 16.4 162.4 16.3 162.5C12.8 166 9.2 169.6 5.7 173.1C5.6 173.2 5.5 173.3 5.4 173.4C6.6 174.6 7.8 175.8 8.9 176.9C9 176.8 9.1 176.7 9.3 176.6C11.6 174.3 13.9 172 16.2 169.7C16.3 169.6 16.5 169.5 16.6 169.4C16.6 169.8 16.6 170.2 16.6 170.6C16.5 170.7 16.4 170.8 16.3 170.8C14.1 173 11.9 175.2 9.7 177.4C9.6 177.5 9.5 177.6 9.5 177.6C10.7 178.8 11.9 180 13 181.1C13.8 180.3 14.8 179.3 15.7 178.4C16 178.1 16.2 177.9 16.5 177.7C16.5 178.1 16.5 178.4 16.5 178.8C15.5 179.8 14.5 180.8 13.6 181.7C14.6 182.7 15.6 183.7 16.5 184.7C16.5 185.1 16.5 185.4 16.5 185.8C16.4 185.7 16.2 185.6 16.1 185.5C15.2 184.6 14.3 183.7 13.4 182.8C13.3 182.7 13.2 182.6 13 182.5C13 182.8 13 183 13 183.2C13 189.1 13 195 13 200.9C13 205.4 13 209.9 13 214.5C13 214.7 13 215 13.2 215.2C14.3 216.3 15.4 217.4 16.5 218.5C16.5 219.2 16.5 219.9 16.5 220.6C15.5 221.6 14.6 222.6 13.6 223.7C14.5 224.6 15.5 225.6 16.5 226.6C16.5 227 16.5 227.3 16.5 227.7C15.8 227 15.1 226.4 14.4 225.7C13.9 225.2 13.4 224.7 13 224.3C11.8 225.5 10.6 226.7 9.5 227.8C9.5 227.8 9.6 227.9 9.7 228C11.9 230.2 14.1 232.4 16.3 234.6C16.4 234.7 16.5 234.7 16.6 234.8C16.6 235.2 16.6 235.6 16.6 236C16.5 235.9 16.3 235.8 16.2 235.7C13.9 233.4 11.6 231.1 9.3 228.8C9.1 228.6 9.1 228.5 9 228.4C7.7 229.7 6.6 230.9 5.4 232C5.4 232 5.5 232.1 5.6 232.2C9.2 235.8 12.8 239.4 16.3 242.9C16.4 243 16.5 243.1 16.6 243.1C16.6 243.5 16.6 243.9 16.6 244.3C16.4 244.1 16.3 244 16.2 243.9C12.5 240.2 8.9 236.6 5.2 232.9C5 232.7 4.9 232.6 4.9 232.6C3.7 233.8 2.5 235 1.4 236.1C1.5 236.2 1.6 236.3 1.7 236.4C5.4 240.1 9 243.7 12.7 247.4C14 248.7 15.4 250.1 16.7 251.4C16.7 251.8 16.7 252.1 16.7 252.5C16.6 252.4 16.4 252.3 16.3 252.2C14.1 250 12 247.9 9.8 245.7C9.7 245.6 9.6 245.4 9.6 245.2C9.6 245.2 9.5 245.3 9.4 245.4C9.4 250.2 9.4 254.9 9.4 259.8C9.6 259.6 9.7 259.5 9.8 259.4C12 257.2 14.1 255.1 16.2 253C16.3 252.9 16.5 252.8 16.6 252.7C16.6 253.1 16.6 253.4 16.6 253.8C16.4 254 16.3 254.1 16.2 254.2C13.7 256.7 11.2 259.2 8.7 261.7C6.3 264.1 4 266.4 1.6 268.8C1.5 268.9 1.4 269.1 1.3 269.1C2.5 270.3 3.7 271.5 4.9 272.7C5 272.5 5.1 272.4 5.2 272.2C8.9 268.5 12.5 264.8 16.2 261.2C16.3 261.1 16.5 261 16.6 260.9C16.6 261.3 16.6 261.7 16.6 262.1C16.5 262.2 16.4 262.3 16.3 262.4C12.8 265.9 9.2 269.5 5.7 273C5.6 273.1 5.5 273.2 5.4 273.3C6.6 274.5 7.8 275.7 8.9 276.8C9 276.7 9.1 276.6 9.3 276.5C11.6 274.2 13.9 271.9 16.2 269.6C16.3 269.5 16.5 269.4 16.6 269.3C16.6 269.7 16.6 270.1 16.6 270.5C16.5 270.6 16.4 270.7 16.3 270.7C14.1 272.9 11.9 275.1 9.7 277.3C9.6 277.4 9.5 277.5 9.5 277.5C10.7 278.7 11.9 279.9 13 281C13.9 280.1 14.8 279.2 15.7 278.3C16 278 16.2 277.8 16.5 277.6C16.5 278 16.5 278.3 16.5 278.7C15.5 279.7 14.5 280.7 13.6 281.6C14.6 282.6 15.6 283.6 16.5 284.6C16.5 285 16.5 285.3 16.5 285.7C16.4 285.6 16.2 285.5 16.1 285.4C15.2 284.5 14.3 283.6 13.4 282.7C13.3 282.6 13.2 282.5 13 282.4C13 282.7 13 282.9 13 283.1C13 289 13 294.9 13 300.8C13 305.3 13 309.8 13 314.4C13 314.6 13 314.9 13.2 315.1C14.3 316.2 15.4 317.3 16.5 318.4C16.5 319.1 16.5 319.8 16.5 320.5C15.5 321.5 14.6 322.5 13.6 323.6C14.5 324.5 15.5 325.5 16.5 326.5C16.5 326.9 16.5 327.2 16.5 327.6C15.8 326.9 15.1 326.3 14.4 325.6C13.9 325.1 13.4 324.6 13 324.2C11.8 325.4 10.6 326.6 9.5 327.7C9.5 327.7 9.6 327.8 9.7 327.9C11.9 330.1 14.1 332.3 16.3 334.5C16.4 334.6 16.5 334.6 16.6 334.7C16.6 335.1 16.6 335.5 16.6 335.9C16.5 335.8 16.3 335.7 16.2 335.6C13.9 333.3 11.6 331 9.3 328.7C9.1 328.5 9.1 328.4 9 328.3C7.7 329.6 6.6 330.8 5.4 331.9C5.4 331.9 5.5 332 5.6 332.1C9.2 335.7 12.8 339.3 16.3 342.8C16.4 342.9 16.5 343 16.6 343C16.6 343.4 16.6 343.8 16.6 344.2C16.4 344 16.3 343.9 16.2 343.8C12.5 340.1 8.9 336.5 5.2 332.8C5 332.6 4.9 332.5 4.9 332.5C3.7 333.7 2.5 334.9 1.4 336C1.5 336.1 1.6 336.2 1.7 336.3C5.4 340 9 343.6 12.7 347.3C14 348.6 15.4 350 16.7 351.3C16.7 351.7 16.7 352 16.7 352.4C16.6 352.3 16.4 352.2 16.3 352.1C14.1 349.9 12 347.8 9.8 345.6C9.7 345.5 9.6 345.3 9.6 345.1C9.6 345.1 9.5 345.2 9.4 345.3C9.4 350.1 9.4 354.8 9.4 359.6C9.4 359.6 9.5 359.6 9.5 359.7C9.6 359.6 9.7 359.4 9.8 359.3C12 357.1 14.1 355 16.2 352.9C16.3 352.8 16.5 352.7 16.6 352.6C16.6 353 16.6 353.3 16.6 353.7C16.4 353.9 16.3 354 16.2 354.1C13.7 356.6 11.2 359.1 8.7 361.6C6.3 364 4 366.3 1.6 368.7C1.5 368.8 1.4 369 1.3 369C2.5 370.2 3.7 371.4 4.9 372.6C5 372.4 5.1 372.3 5.2 372.1C8.9 368.4 12.5 364.7 16.2 361.1C16.3 361 16.5 360.9 16.6 360.8C16.6 361.2 16.6 361.6 16.6 362C16.5 362.1 16.4 362.2 16.3 362.3C12.8 365.8 9.2 369.4 5.7 372.9C5.6 373 5.5 373.1 5.4 373.2C6.6 374.4 7.8 375.6 8.9 376.7C9 376.6 9.1 376.5 9.3 376.4C11.6 374.1 13.9 371.8 16.2 369.5C16.3 369.4 16.5 369.3 16.6 369.2C16.6 369.6 16.6 370 16.6 370.4C16.5 370.5 16.4 370.6 16.3 370.6C14.1 372.8 11.9 375 9.7 377.2C9.6 377.3 9.5 377.4 9.5 377.4C10.7 378.6 11.9 379.8 13 380.9C13.9 380 14.8 379.1 15.7 378.2C16 377.9 16.2 377.7 16.5 377.5C16.5 377.9 16.5 378.2 16.5 378.6C15.5 379.6 14.5 380.6 13.6 381.5C14.6 382.5 15.6 383.5 16.5 384.5C16.5 384.9 16.5 385.2 16.5 385.6C16.4 385.5 16.2 385.4 16.1 385.3C15.2 384.4 14.3 383.5 13.4 382.6C13.3 382.5 13.2 382.4 13 382.3C13 382.6 13 382.8 13 383C13 388.9 13 394.8 13 400.7C13 405.2 13 409.7 13 414.3C13 414.5 13 414.8 13.2 415C14.3 416.1 15.4 417.2 16.5 418.3C16.5 419 16.5 419.7 16.5 420.4C15.5 421.4 14.6 422.4 13.6 423.5C14.5 424.4 15.5 425.4 16.5 426.4C16.5 426.8 16.5 427.1 16.5 427.5C15.8 426.8 15.1 426.2 14.4 425.5C13.9 425 13.4 424.5 13 424.1C11.8 425.3 10.6 426.5 9.5 427.6C9.5 427.6 9.6 427.7 9.7 427.8C11.9 430 14.1 432.2 16.3 434.4C16.4 434.5 16.5 434.5 16.6 434.6C16.6 435 16.6 435.4 16.6 435.8C16.5 435.7 16.3 435.6 16.2 435.5C13.9 433.2 11.6 430.9 9.3 428.6C9.1 428.4 9.1 428.3 9 428.2C7.7 429.5 6.6 430.7 5.4 431.8C5.4 431.8 5.5 431.9 5.6 432C9.2 435.6 12.8 439.2 16.3 442.7C16.4 442.8 16.5 442.9 16.6 442.9C16.6 443.3 16.6 443.7 16.6 444.1C16.4 443.9 16.3 443.8 16.2 443.7C12.5 440 8.9 436.4 5.2 432.7C5 432.5 5 432.4 4.9 432.3C3.6 433.6 2.5 434.7 1.2 436C1.3 436.1 1.4 436.2 1.5 436.3C4.1 438.9 6.7 441.5 9.2 444C9.3 444.1 9.4 444.3 9.5 444.4C9.1 444.4 8.7 444.4 8.3 444.4C8.2 444.3 8.1 444.1 8 444C7.2 443.2 6.4 442.4 5.6 441.6C5.5 441.4 5.4 441.3 5.3 441.1C5.2 441.1 5.1 441.2 5.1 441.3C5.1 442.3 5.1 443.4 5.1 444.5C4.8 444.5 4.6 444.5 4.3 444.5C4.3 443.2 4.3 442 4.3 440.7C4.3 440.5 4.2 440.2 4.1 440.1C3.1 439.1 2.2 438.1 1.2 437.2C1.1 437.1 1.1 437.1 0.9 437C0.9 437.3 0.9 437.4 0.9 437.6C0.9 439.9 0.9 442.2 0.9 444.5C0.5 444.5 0.1 444.5 -0.3 444.5C-0.3 444.1 -0.3 443.7 -0.3 443.2C-0.2 443.2 -0.1 443.3 0 443.4C0 441.2 0 439 0 436.8C-0.2 436.8 -0.2 436.9 -0.3 437C-0.3 436.3 -0.3 435.7 -0.3 435C-0.1 435.2 0.1 435.4 0.3 435.5C1.5 434.3 2.7 433.1 3.8 432C2.5 430.7 1.1 429.3 -0.2 427.8C-0.2 427.4 -0.2 427.1 -0.2 426.7C-0.1 426.8 0.1 426.9 0.2 427C1.5 428.3 2.9 429.7 4.2 431C4.3 431.1 4.4 431.2 4.5 431.3C5.7 430.1 6.9 428.9 8.1 427.7C7.8 427.4 7.4 427.1 7.1 426.8C4.7 424.4 2.2 421.9 -0.2 419.5C-0.2 419.1 -0.2 418.8 -0.2 418.4C0 418.5 0.1 418.6 0.2 418.7C2.9 421.4 5.6 424.1 8.4 426.9C8.5 427 8.6 427.1 8.7 427.2C9.9 426 11.1 424.8 12.3 423.6C8.2 419.5 4 415.4 -0.1 411.2C-0.1 410.8 -0.1 410.5 -0.1 410.1C0.1 410.2 0.2 410.3 0.4 410.5C4.5 414.6 8.6 418.7 12.7 422.8C12.8 422.9 13 423 13 423.1C14.2 421.9 15.4 420.7 16.5 419.6C11.2 414.3 5.8 408.9 0.4 403.5C0.3 403.6 0.1 403.7 0 403.8C0 403.4 0 403.1 0 402.7C0 402.6 0.1 402.4 0.1 402.3C0.1 400.1 0.1 397.9 0.1 395.8C0.1 395.7 0.1 395.5 0 395.4C0 394.7 0 394 0 393.3C0.2 393.5 0.3 393.6 0.5 393.7C4.5 389.7 8.5 385.7 12.4 381.8C11.3 380.6 10.1 379.5 8.9 378.3C6.2 381 3.4 383.8 0.6 386.7C0.4 386.5 0.3 386.4 0.1 386.3C0.1 385.9 0.1 385.6 0.1 385.2C0.3 385.3 0.4 385.4 0.6 385.5C3.2 382.9 5.8 380.3 8.3 377.8C7.1 376.6 6 375.5 4.8 374.3C3.5 375.6 2 377.1 0.6 378.5C0.4 378.4 0.3 378.3 0.1 378.2C0.1 377.8 0.1 377.4 0.1 377C0.3 377.1 0.4 377.3 0.6 377.3C1.8 376.1 3 374.9 4.2 373.7C3.1 372.6 1.9 371.4 0.7 370.2C0.5 370.4 0.4 370.5 0.2 370.7C0.2 370 0.2 369.3 0.2 368.6C0.3 368.7 0.4 368.7 0.6 368.8C0.6 368.5 0.6 368.4 0.6 368.2C0.6 366.2 0.6 364.1 0.6 362.1C0.6 361.8 0.5 361.6 0.2 361.4C0.2 361 0.2 360.7 0.2 360.3C0.3 360.3 0.4 360.4 0.6 360.5C0.6 360.3 0.6 360.1 0.6 360C0.6 358 0.6 356 0.6 354C0.6 353.7 0.6 353.4 0.2 353.2C0.2 352.8 0.2 352.5 0.2 352.1C0.3 352.1 0.4 352.2 0.6 352.3C0.6 352.1 0.6 351.9 0.6 351.7C0.6 349.7 0.6 347.7 0.6 345.7C0.6 345.4 0.6 345 0.2 344.9C0.2 344.5 0.2 344.2 0.2 343.8C0.3 343.8 0.4 343.9 0.5 344C0.5 341.8 0.5 339.6 0.5 337.4C0.3 337.4 0.3 337.5 0.2 337.6C0.2 336.9 0.2 336.3 0.2 335.6C0.4 335.8 0.6 336 0.8 336.1C2 334.9 3.2 333.7 4.3 332.6C3 331.3 1.6 329.9 0.3 328.4C0.3 328 0.3 327.7 0.3 327.3C0.4 327.4 0.6 327.5 0.7 327.6C2 328.9 3.4 330.3 4.7 331.6C4.8 331.7 4.9 331.8 5 331.9C6.2 330.7 7.4 329.5 8.6 328.3C8.3 328 7.9 327.7 7.6 327.4C5.2 325 2.7 322.5 0.3 320.1C0.3 319.7 0.3 319.4 0.3 319C0.5 319.1 0.6 319.2 0.7 319.3C3.4 322 6.1 324.7 8.9 327.5C9 327.6 9.1 327.7 9.2 327.8C10.4 326.6 11.6 325.4 12.8 324.3C8 320.3 3.8 316.1 -0.3 312C-0.3 311.6 -0.3 311.3 -0.3 310.9C-0.1 311 -1.49012e-08 311.1 0.2 311.3C4.3 315.4 8.4 319.5 12.5 323.6C12.6 323.7 12.8 323.8 12.8 323.9C14 322.7 15.2 321.5 16.3 320.4C11 315 5.6 309.7 0.2 304.3C0.1 304.4 -0.1 304.5 -0.2 304.6C-0.2 304.2 -0.2 303.9 -0.2 303.5C-0.2 303.4 -0.1 303.2 -0.1 303.1C-0.1 300.9 -0.1 298.7 -0.1 296.6C-0.1 296.5 -0.1 296.3 -0.2 296.2C-0.2 295.5 -0.2 294.8 -0.2 294.1C0 294.3 0.1 294.4 0.3 294.5C4.3 290.5 8.3 286.5 12.2 282.6C11 281.4 9.9 280.3 8.7 279.1C6 281.8 3.2 284.6 0.4 287.5C0.2 286.1 7.45058e-09 286 -0.1 285.8ZM1.1 367.8C1.2 367.8 1.2 367.8 1.3 367.7C2.3 366.7 3.3 365.7 4.3 364.7C4.4 364.6 4.5 364.4 4.5 364.2C4.5 356.3 4.5 348.4 4.5 340.4C4.5 340.2 4.4 340 4.3 339.9C3.3 338.9 2.3 337.9 1.3 336.9C1.3 336.9 1.2 336.9 1.1 336.8C1.1 347.2 1.1 357.5 1.1 367.8ZM1.1 37.4C1.1 47.8 1.1 58.1 1.1 68.5C1.2 68.5 1.3 68.4 1.3 68.4C2.3 67.4 3.3 66.4 4.3 65.4C4.4 65.3 4.5 65.1 4.5 64.9C4.5 57 4.5 49.1 4.5 41.2C4.5 41 4.5 40.9 4.4 40.7C3.3 39.6 2.3 38.5 1.1 37.4ZM1.1 268C1.2 268 1.3 267.9 1.3 267.9C2.3 266.9 3.3 265.9 4.3 264.9C4.4 264.8 4.5 264.6 4.5 264.4C4.5 256.5 4.5 248.6 4.5 240.7C4.5 240.5 4.4 240.2 4.2 240C3.3 239 2.4 238.1 1.4 237.2C1.3 237.1 1.2 237 1.1 237C1.1 247.4 1.1 257.7 1.1 268ZM1.1 137.2C1.1 147.6 1.1 157.9 1.1 168.3C1.2 168.3 1.2 168.3 1.3 168.2C2.3 167.2 3.3 166.2 4.4 165.1C4.5 165 4.6 164.8 4.6 164.6C4.6 156.7 4.6 148.8 4.6 140.9C4.6 140.7 4.6 140.6 4.5 140.4C3.3 139.4 2.3 138.3 1.1 137.2ZM12.4 382.4C11.4 383.4 10.4 384.4 9.4 385.4C9.2 385.6 9.1 385.9 9.1 386.1C9.1 394.1 9.1 402 9.1 410C9.1 410.2 9.2 410.5 9.4 410.7C10.3 411.6 11.2 412.5 12.1 413.4C12.2 413.5 12.3 413.6 12.4 413.7C12.4 403.2 12.4 392.9 12.4 382.4ZM12.4 114.4C12.4 103.9 12.4 93.6 12.4 83.1C11.4 84.1 10.5 85 9.5 86C9.2 86.3 9.1 86.6 9.1 87C9.1 94.7 9.1 102.5 9.1 110.2C9.1 110.9 9.3 111.4 9.8 111.9C10.7 112.6 11.5 113.4 12.4 114.4ZM12.3 214.2C12.3 203.7 12.3 193.4 12.3 182.9C11.3 183.9 10.4 184.8 9.4 185.8C9.1 186.1 9 186.4 9 186.8C9 194.1 9 201.5 9 208.8C9 209.5 8.8 210.3 9.1 210.9C9.4 211.5 10 211.9 10.5 212.4C11.2 212.9 11.7 213.5 12.3 214.2ZM12.4 282.6C11.4 283.6 10.6 284.5 9.6 285.4C9.2 285.7 9.1 286.1 9.1 286.6C9.1 288.5 9.1 290.5 9.1 292.4C9.1 298.3 9.1 304.2 9.1 310C9.1 310.4 9.2 310.7 9.5 310.9C10.2 311.6 11 312.4 11.7 313.1C11.9 313.3 12.1 313.6 12.3 313.8L12.4 313.7C12.4 303.4 12.4 293.1 12.4 282.6ZM8.1 210L8.2 209.9C8.2 202.3 8.2 194.7 8.2 187.1C8.1 187.1 8.1 187.1 8 187.2C7 188.2 6 189.2 5.1 190.1C5 190.2 5 190.4 5 190.6C5 195.8 5 201.1 5 206.3C5 206.5 5.1 206.8 5.3 207C6 207.8 6.8 208.5 7.5 209.2C7.7 209.5 7.9 209.7 8.1 210ZM8.2 110.2C8.2 102.5 8.2 94.9 8.2 87.2C8 87.4 7.9 87.4 7.8 87.5C7 88.4 6.3 89.2 5.4 90C5.1 90.3 4.9 90.7 4.9 91.1C4.9 96 4.9 100.8 4.9 105.6C4.9 106.6 5.1 107.3 5.9 107.9C6.7 108.6 7.4 109.4 8.2 110.2ZM8.1 309.8C8.1 309.8 8.2 309.7 8.3 309.7C8.3 302.1 8.3 294.5 8.3 286.9C8.2 286.9 8.2 286.9 8.1 287C7.1 288 6.1 289 5.2 289.9C5 290 5 290.2 5 290.4C5 295.7 5 300.9 5 306.2C5 306.4 5.1 306.6 5.3 306.8C5.9 307.5 6.5 308 7.1 308.7C7.4 309 7.8 309.4 8.1 309.8ZM8.2 386.6C8.1 386.6 8.1 386.6 8 386.7C7 387.7 6 388.7 5.1 389.6C5 389.8 5 390 5 390.2C5 395.4 5 400.7 5 405.9C5 406.1 5.1 406.4 5.3 406.6C6 407.4 6.8 408.1 7.5 408.8C7.7 409 7.9 409.3 8.2 409.6L8.3 409.5C8.2 401.9 8.2 394.3 8.2 386.6ZM5.4 241.2C5.4 248.8 5.4 256.3 5.4 263.9C6.4 262.9 7.4 261.9 8.4 260.9C8.5 260.8 8.6 260.6 8.6 260.4C8.6 255.2 8.6 250 8.6 244.8C8.6 244.6 8.6 244.5 8.4 244.3C7.4 243.3 6.5 242.3 5.4 241.2ZM5.4 141.4C5.4 149 5.4 156.5 5.4 164C6.4 163 7.4 162 8.4 161C8.5 160.9 8.6 160.7 8.6 160.5C8.6 155.3 8.6 150.1 8.6 144.9C8.6 144.7 8.6 144.6 8.4 144.4C7.4 143.5 6.4 142.5 5.4 141.4ZM5.3 363.6C5.4 363.5 5.5 363.5 5.5 363.4C6.4 362.5 7.4 361.6 8.3 360.6C8.4 360.5 8.5 360.2 8.5 360C8.5 354.8 8.5 349.7 8.5 344.5C8.5 344.3 8.4 344 8.2 343.8C7.4 342.9 6.5 342.1 5.6 341.2C5.5 341.1 5.4 341 5.3 341C5.3 348.6 5.3 356 5.3 363.6ZM5.4 64.3C6.5 63.2 7.5 62.3 8.4 61.3C8.5 61.2 8.6 61 8.6 60.8C8.6 55.6 8.6 50.4 8.6 45.3C8.6 45.1 8.5 44.8 8.3 44.6C7.6 43.9 6.9 43.2 6.1 42.4C5.9 42.2 5.7 41.9 5.5 41.7L5.4 41.8C5.4 49.2 5.4 56.7 5.4 64.3ZM4.1 291C3.9 291.2 3.8 291.2 3.8 291.3C2.9 292.2 2 293 1.2 294C1 294.2 0.9 294.5 0.9 294.7C0.9 297.2 0.9 299.6 0.9 302.1C0.9 302.3 1 302.6 1.2 302.8C2 303.7 3 304.6 3.8 305.5C3.9 305.6 4 305.7 4.1 305.8C4.1 300.7 4.1 295.9 4.1 291ZM4.1 205.8C4.1 200.9 4.1 196.1 4.1 191.2C4 191.3 3.9 191.3 3.9 191.4C2.9 192.4 2 193.3 1 194.3C0.9 194.4 0.8 194.6 0.8 194.8C0.8 197.3 0.8 199.8 0.8 202.2C0.8 202.4 0.9 202.7 1.1 202.8C1.9 203.7 2.8 204.5 3.7 205.4C3.8 205.5 3.9 205.6 4.1 205.8ZM4.1 91.4C4 91.4 3.9 91.5 3.9 91.5C2.9 92.5 1.9 93.5 1 94.4C0.9 94.5 0.8 94.7 0.8 94.9C0.8 97.4 0.8 99.8 0.8 102.3C0.8 102.5 0.9 102.8 1.1 103C2 103.9 2.9 104.8 3.8 105.7C3.9 105.8 4 105.9 4.1 105.9C4.1 101.1 4.1 96.3 4.1 91.4ZM4.1 405.4C4.1 400.5 4.1 395.7 4.1 390.8C4 390.9 3.9 390.9 3.9 391C2.9 392 2 392.9 1 393.9C0.9 394 0.8 394.2 0.8 394.4C0.8 396.9 0.8 399.4 0.8 401.8C0.8 402 0.9 402.3 1.1 402.4C1.9 403.3 2.8 404.1 3.7 405C3.8 405.1 3.9 405.2 4.1 405.4Z" fill="#9DD4D2"/>
<path d="M-0.1 685.1C-0.1 684.7 -0.1 684.4 -0.1 684C0.1 684.1 0.2 684.2 0.4 684.3C3 681.7 5.6 679.1 8.1 676.6C6.9 675.4 5.8 674.3 4.6 673.1C3.3 674.4 1.8 675.9 0.4 677.3C0.2 677.2 0.1 677.1 -0.1 677C-0.1 676.6 -0.1 676.2 -0.1 675.8C0.1 675.9 0.2 676.1 0.4 676.1C1.6 674.9 2.8 673.7 4 672.5C2.9 671.4 1.7 670.2 0.5 669C0.3 669.2 0.2 669.3 7.45058e-09 669.5C7.45058e-09 668.8 7.45058e-09 668.1 7.45058e-09 667.4C0.1 667.5 0.2 667.5 0.4 667.6C0.4 667.3 0.4 667.2 0.4 667C0.4 665 0.4 662.9 0.4 660.9C0.4 660.6 0.3 660.4 7.45058e-09 660.2C7.45058e-09 659.8 7.45058e-09 659.5 7.45058e-09 659.1C0.1 659.1 0.2 659.2 0.4 659.3C0.4 659.1 0.4 658.9 0.4 658.8C0.4 656.8 0.4 654.8 0.4 652.8C0.4 652.5 0.4 652.2 7.45058e-09 652C7.45058e-09 651.6 7.45058e-09 651.3 7.45058e-09 650.9C0.1 650.9 0.2 651 0.4 651.1C0.4 650.9 0.4 650.7 0.4 650.5C0.4 648.5 0.4 646.5 0.4 644.5C0.4 644.2 0.4 643.8 7.45058e-09 643.7C7.45058e-09 643.3 7.45058e-09 643 7.45058e-09 642.6C0.1 642.6 0.2 642.7 0.3 642.8C0.3 640.6 0.3 638.4 0.3 636.2C0.1 636.2 0.1 636.3 7.45058e-09 636.4C7.45058e-09 635.7 7.45058e-09 635.1 7.45058e-09 634.4C0.2 634.6 0.4 634.8 0.6 634.9C1.8 633.7 3 632.5 4.1 631.4C2.8 630.1 1.4 628.7 0.1 627.2C0.1 626.8 0.1 626.5 0.1 626.1C0.2 626.2 0.4 626.3 0.5 626.4C1.8 627.7 3.2 629.1 4.5 630.4C4.6 630.5 4.7 630.6 4.8 630.7C6 629.5 7.2 628.3 8.4 627.1C8.1 626.8 7.7 626.5 7.4 626.2C5 623.8 2.5 621.3 0.1 618.9C0.1 618.5 0.1 618.2 0.1 617.8C0.3 617.9 0.4 618 0.5 618.1C3.2 620.8 5.9 623.5 8.7 626.3C8.8 626.4 8.9 626.5 9 626.6C10.2 625.4 11.4 624.2 12.6 623.1C8.5 619 4.3 614.9 0.2 610.7C0.2 610.3 0.2 610 0.2 609.6C0.4 609.7 0.5 609.8 0.7 610C4.8 614.1 8.9 618.2 13 622.3C13.1 622.4 13.3 622.5 13.3 622.6C14.5 621.4 15.7 620.2 16.8 619.1C11.5 613.8 6.1 608.4 0.7 603C0.6 603.1 0.4 603.2 0.3 603.3C0.3 602.9 0.3 602.6 0.3 602.2C0.3 602.1 0.4 601.9 0.4 601.8C0.4 599.6 0.4 597.4 0.4 595.3C0.4 595.2 0.4 595 0.3 594.9C0.3 594.2 0.3 593.5 0.3 592.8C0.5 593 0.6 593.1 0.8 593.2C4.8 589.2 8.8 585.2 12.7 581.3C11.6 580.1 10.4 579 9.2 577.8C6.5 580.5 3.7 583.3 0.9 586.2C0.7 586 0.6 585.9 0.4 585.8C0.4 585.4 0.4 585.1 0.4 584.7C0.6 584.8 0.7 584.9 0.9 585C3.5 582.4 6.1 579.8 8.6 577.3C7.4 576.1 6.3 575 5.1 573.8C3.8 575.1 2.3 576.6 0.9 578C0.7 577.9 0.6 577.8 0.4 577.7C0.4 577.3 0.4 576.9 0.4 576.5C0.6 576.6 0.7 576.8 0.9 576.8C2.1 575.6 3.3 574.4 4.5 573.2C3.4 572.1 2.2 570.9 1 569.7C0.8 569.9 0.7 570 0.5 570.2C0.5 569.5 0.5 568.8 0.5 568.1C0.6 568.2 0.7 568.2 0.9 568.3C0.9 568 0.9 567.9 0.9 567.7C0.9 565.7 0.9 563.6 0.9 561.6C0.9 561.3 0.8 561.1 0.5 560.9C0.5 560.5 0.5 560.2 0.5 559.8C0.6 559.8 0.7 559.9 0.9 560C0.9 559.8 0.9 559.6 0.9 559.5C0.9 557.5 0.9 555.5 0.9 553.5C0.9 553.2 0.9 552.9 0.5 552.7C0.5 552.3 0.5 552 0.5 551.6C0.6 551.6 0.7 551.7 0.9 551.8C0.9 551.6 0.9 551.4 0.9 551.2C0.9 549.2 0.9 547.2 0.9 545.2C0.9 544.9 0.9 544.5 0.5 544.4C0.5 544 0.5 543.7 0.5 543.3C0.6 543.3 0.7 543.4 0.8 543.5C0.8 541.3 0.8 539.1 0.8 536.9C0.6 536.9 0.6 537 0.5 537.1C0.5 536.4 0.5 535.8 0.5 535.1C0.7 535.3 0.9 535.5 1.1 535.6C2.3 534.4 3.5 533.2 4.6 532.1C3.3 530.8 1.9 529.4 0.6 527.9C0.6 527.5 0.6 527.2 0.6 526.8C0.7 526.9 0.9 527 1 527.1C2.3 528.4 3.7 529.8 5 531.1C5.1 531.2 5.2 531.3 5.3 531.4C6.5 530.2 7.7 529 8.9 527.8C8.6 527.5 8.2 527.2 7.9 526.9C5.5 524.5 3 522 0.6 519.6C0.6 519.2 0.6 518.9 0.6 518.5C0.8 518.6 0.9 518.7 1 518.8C3.7 521.5 6.4 524.2 9.2 527C9.3 527.1 9.4 527.2 9.5 527.3C10.7 526.1 11.9 524.9 13.1 523.7C9 519.6 4.8 515.5 0.7 511.3C0.7 510.9 0.7 510.6 0.7 510.2C0.9 510.3 1 510.4 1.2 510.6C5.3 514.7 9.4 518.8 13.5 522.9C13.6 523 13.8 523.1 13.8 523.2C15 522 16.2 520.8 17.3 519.7C12 514.4 6.6 509 1.2 503.6C1.1 503.7 0.9 503.8 0.8 503.9C0.8 503.5 0.8 503.2 0.8 502.8C0.8 502.7 0.9 502.5 0.9 502.4C0.9 500.2 0.9 498 0.9 495.9C0.9 495.8 0.9 495.6 0.8 495.5C0.8 494.8 0.8 494.1 0.8 493.4C1 493.6 1.1 493.7 1.3 493.8C5.3 489.8 9.3 485.8 13.2 481.9C12.1 480.7 10.9 479.6 9.7 478.4C7 481.1 4.2 483.9 1.4 486.8C1.2 486.6 1.1 486.5 0.9 486.4C0.9 486 0.9 485.7 0.9 485.3C1.1 485.4 1.2 485.5 1.4 485.6C4 483 6.6 480.4 9.1 477.9C7.9 476.7 6.8 475.6 5.6 474.4C4.3 475.7 2.8 477.2 1.4 478.6C1.2 478.5 1.1 478.4 0.9 478.3C0.9 477.9 0.9 477.5 0.9 477.1C1.1 477.2 1.2 477.4 1.4 477.4C2.6 476.2 3.8 475 5 473.8C3.9 472.7 2.7 471.5 1.5 470.3C1.3 470.5 1.2 470.6 1 470.8C1 470.1 1 469.4 1 468.7C1.1 468.8 1.2 468.8 1.4 468.9C1.4 468.6 1.4 468.5 1.4 468.3C1.4 466.3 1.4 464.2 1.4 462.2C1.4 461.9 1.3 461.7 1 461.5C1 461.1 1 460.8 1 460.4C1.1 460.4 1.2 460.5 1.4 460.6C1.4 460.4 1.4 460.2 1.4 460.1C1.4 458.1 1.4 456.1 1.4 454.1C1.4 453.8 1.4 453.5 1 453.3C1 452.9 1 452.6 1 452.2C1.1 452.2 1.2 452.3 1.4 452.4C1.4 452.2 1.4 452 1.4 451.8C1.4 449.8 1.4 447.8 1.4 445.8C1.4 445.5 1.4 445.1 1 445C1 444.6 1 444.3 1 443.9C1.1 443.9 1.2 444 1.3 444.1C1.3 441.9 1.3 439.7 1.3 437.5C1.1 437.5 1.1 437.6 1 437.7C1 437 1 436.4 1 435.7C1.2 435.9 1.4 436.1 1.6 436.2C2.8 435 4 433.8 5.1 432.7C3.8 431.4 2.4 430 1.1 428.5C1.1 428.1 1.1 427.8 1.1 427.4C1.2 427.5 1.4 427.6 1.5 427.7C2.8 429 4.2 430.4 5.5 431.7C5.6 431.8 5.7 431.9 5.8 432C7 430.8 8.2 429.6 9.4 428.4C9.1 428.1 8.7 427.8 8.4 427.5C6 425.1 3.5 422.6 1.1 420.2C1.1 419.8 1.1 419.5 1.1 419.1C1.3 419.2 1.4 419.3 1.5 419.4C4.2 422.1 6.9 424.8 9.7 427.6C9.8 427.7 9.9 427.8 10 427.9C11.2 426.7 12.4 425.5 13.6 424.4C9.5 420.3 5.3 416.2 1.2 412C1.2 411.6 1.2 411.3 1.2 410.9C1.4 411 1.5 411.1 1.7 411.3C5.8 415.4 9.9 419.5 14 423.6C14.1 423.7 14.3 423.8 14.3 423.9C15.5 422.7 16.7 421.5 17.8 420.4C12.5 415.1 7.1 409.7 1.7 404.3C1.6 404.4 1.4 404.5 1.3 404.6C1.3 403.6 1.3 402.5 1.3 401.4C1.6 401.4 1.9 401.4 2.2 401.4C2.2 401.9 2.2 402.5 2.2 403C2.2 403.2 2.3 403.5 2.5 403.7C3.4 404.6 4.3 405.5 5.2 406.4C5.3 406.5 5.4 406.6 5.5 406.7C5.5 404.9 5.5 403.2 5.5 401.5C5.8 401.5 6 401.5 6.3 401.5C6.3 403.4 6.3 405.4 6.3 407.3C6.3 407.5 6.4 407.8 6.5 407.9C7.4 408.8 8.3 409.7 9.2 410.6C9.3 410.7 9.4 410.7 9.5 410.8C9.5 409.5 9.5 408.3 9.5 407.2C9.5 405.3 9.5 403.4 9.5 401.5C9.8 401.5 10 401.5 10.3 401.5C10.3 404.9 10.3 408.2 10.3 411.5C10.3 411.7 10.4 411.9 10.5 412C11.4 412.9 12.3 413.8 13.2 414.7C13.3 414.8 13.4 414.8 13.5 414.9C13.5 414.6 13.5 414.4 13.5 414.2C13.5 410.1 13.5 406 13.5 401.9C13.5 401.7 13.5 401.5 13.5 401.3C13.7 401.3 14 401.3 14.2 401.3C14.2 401.5 14.2 401.7 14.2 402C14.2 406.4 14.2 410.8 14.2 415.3C14.2 415.5 14.2 415.8 14.4 416C15.5 417.1 16.6 418.2 17.7 419.3C17.7 420 17.7 420.7 17.7 421.4C16.7 422.4 15.8 423.4 14.8 424.5C15.7 425.4 16.7 426.4 17.7 427.4C17.7 427.8 17.7 428.1 17.7 428.5C17 427.8 16.3 427.2 15.6 426.5C15.1 426 14.6 425.5 14.2 425.1C13 426.3 11.8 427.5 10.7 428.6C10.7 428.6 10.8 428.7 10.9 428.8C13.1 431 15.3 433.2 17.5 435.4C17.6 435.5 17.7 435.5 17.8 435.6C17.8 436 17.8 436.4 17.8 436.8C17.7 436.7 17.5 436.6 17.4 436.5C15.1 434.2 12.8 431.9 10.5 429.6C10.3 429.4 10.3 429.3 10.2 429.2C8.9 430.5 7.8 431.7 6.6 432.8C6.6 432.8 6.7 432.9 6.8 433C10.4 436.6 14 440.2 17.5 443.7C17.6 443.8 17.7 443.9 17.8 443.9C17.8 444.3 17.8 444.7 17.8 445.1C17.6 444.9 17.5 444.8 17.4 444.7C13.7 441 10.1 437.4 6.4 433.7C6.2 433.5 6.1 433.4 6.1 433.4C4.9 434.6 3.7 435.8 2.6 436.9C2.7 437 2.8 437.1 2.9 437.2C6.6 440.9 10.2 444.5 13.9 448.2C15.2 449.5 16.6 450.9 17.9 452.2C17.9 452.6 17.9 452.9 17.9 453.3C17.8 453.2 17.6 453.1 17.5 453C15.3 450.8 13.2 448.7 11 446.5C10.9 446.4 10.8 446.2 10.8 446C10.8 446 10.7 446.1 10.6 446.2C10.6 451 10.6 455.7 10.6 460.5C10.6 460.5 10.7 460.5 10.7 460.6C10.8 460.5 10.9 460.3 11 460.2C13.2 458 15.3 455.9 17.4 453.8C17.5 453.7 17.7 453.6 17.8 453.5C17.8 453.9 17.8 454.2 17.8 454.6C17.6 454.8 17.5 454.9 17.4 455C14.9 457.5 12.4 460 9.9 462.5C7.5 464.9 5.2 467.2 2.8 469.6C2.7 469.7 2.6 469.9 2.5 469.9C3.7 471.1 4.9 472.3 6.1 473.5C6.2 473.3 6.3 473.2 6.4 473C10.1 469.3 13.7 465.6 17.4 462C17.5 461.9 17.7 461.8 17.8 461.7C17.8 462.1 17.8 462.5 17.8 462.9C17.7 463 17.6 463.1 17.5 463.2C14 466.7 10.4 470.3 6.9 473.8C6.8 473.9 6.7 474 6.6 474.1C7.8 475.3 9 476.5 10.1 477.6C10.2 477.5 10.3 477.4 10.5 477.3C12.8 475 15.1 472.7 17.4 470.4C17.5 470.3 17.7 470.2 17.8 470.1C17.8 470.5 17.8 470.9 17.8 471.3C17.7 471.4 17.6 471.5 17.5 471.5C15.3 473.7 13.1 475.9 10.9 478.1C10.8 478.2 10.7 478.3 10.7 478.3C11.9 479.5 13.1 480.7 14.2 481.8C15 481 16 480 16.9 479.1C17.2 478.8 17.4 478.6 17.7 478.4C17.7 478.8 17.7 479.1 17.7 479.5C16.7 480.5 15.7 481.5 14.8 482.4C15.8 483.4 16.8 484.4 17.7 485.4C17.7 485.8 17.7 486.1 17.7 486.5C17.6 486.4 17.4 486.3 17.3 486.2C16.4 485.3 15.5 484.4 14.6 483.5C14.5 483.4 14.4 483.3 14.2 483.2C14.2 483.5 14.2 483.7 14.2 483.9C14.2 489.8 14.2 495.7 14.2 501.6C14.2 506.1 14.2 510.6 14.2 515.2C14.2 515.4 14.2 515.7 14.4 515.9C15.5 517 16.6 518.1 17.7 519.2C17.7 519.9 17.7 520.6 17.7 521.3C16.7 522.3 15.8 523.3 14.8 524.4C15.7 525.3 16.7 526.3 17.7 527.3C17.7 527.7 17.7 528 17.7 528.4C17 527.7 16.3 527.1 15.6 526.4C15.1 525.9 14.6 525.4 14.2 525C13 526.2 11.8 527.4 10.7 528.5C10.7 528.5 10.8 528.6 10.9 528.7C13.1 530.9 15.3 533.1 17.5 535.3C17.6 535.4 17.7 535.4 17.8 535.5C17.8 535.9 17.8 536.3 17.8 536.7C17.7 536.6 17.5 536.5 17.4 536.4C15.1 534.1 12.8 531.8 10.5 529.5C10.3 529.3 10.3 529.2 10.2 529.1C8.9 530.4 7.8 531.6 6.6 532.7C6.6 532.7 6.7 532.8 6.8 532.9C10.4 536.5 14 540.1 17.5 543.6C17.6 543.7 17.7 543.8 17.8 543.8C17.8 544.2 17.8 544.6 17.8 545C17.6 544.8 17.5 544.7 17.4 544.6C13.7 540.9 10.1 537.3 6.4 533.6C6.2 533.4 6.1 533.3 6.1 533.3C4.9 534.5 3.7 535.7 2.6 536.8C2.7 536.9 2.8 537 2.9 537.1C6.6 540.8 10.2 544.4 13.9 548.1C15.2 549.4 16.6 550.8 17.9 552.1C17.9 552.5 17.9 552.8 17.9 553.2C17.8 553.1 17.6 553 17.5 552.9C15.3 550.7 13.2 548.6 11 546.4C10.9 546.3 10.8 546.1 10.8 545.9C10.8 545.9 10.7 546 10.6 546.1C10.6 550.9 10.6 555.6 10.6 560.4H10.7C10.8 560.3 10.9 560.2 11 560.1C13.2 557.9 15.3 555.8 17.4 553.7C17.5 553.6 17.7 553.5 17.8 553.4C17.8 553.8 17.8 554.1 17.8 554.5C17.6 554.7 17.5 554.8 17.4 554.9C14.9 557.4 12.4 559.9 9.9 562.4C7.5 564.8 5.2 567.1 2.8 569.5C2.7 569.6 2.6 569.8 2.5 569.8C3.7 571 4.9 572.2 6.1 573.4C6.2 573.2 6.3 573.1 6.4 572.9C10.1 569.2 13.7 565.5 17.4 561.9C17.5 561.8 17.7 561.7 17.8 561.6C17.8 562 17.8 562.4 17.8 562.8C17.7 562.9 17.6 563 17.5 563.1C14 566.6 10.4 570.2 6.9 573.7C6.8 573.8 6.7 573.9 6.6 574C7.8 575.2 9 576.4 10.1 577.5C10.2 577.4 10.3 577.3 10.5 577.2C12.8 574.9 15.1 572.6 17.4 570.3C17.5 570.2 17.7 570.1 17.8 570C17.8 570.4 17.8 570.8 17.8 571.2C17.7 571.3 17.6 571.4 17.5 571.4C15.3 573.6 13.1 575.8 10.9 578C10.8 578.1 10.7 578.2 10.7 578.2C11.9 579.4 13.1 580.6 14.2 581.7C15 580.9 16 579.9 16.9 579C17.2 578.7 17.4 578.5 17.7 578.3C17.7 578.7 17.7 579 17.7 579.4C16.7 580.4 15.7 581.4 14.8 582.3C15.8 583.3 16.8 584.3 17.7 585.3C17.7 585.7 17.7 586 17.7 586.4C17.6 586.3 17.4 586.2 17.3 586.1C16.4 585.2 15.5 584.3 14.6 583.4C14.5 583.3 14.4 583.2 14.2 583.1C14.2 583.4 14.2 583.6 14.2 583.8C14.2 589.7 14.2 595.6 14.2 601.5C14.2 606 14.2 610.5 14.2 615.1C14.2 615.3 14.2 615.6 14.4 615.8C15.5 616.9 16.6 618 17.7 619.1C17.7 619.8 17.7 620.5 17.7 621.2C16.7 622.2 15.8 623.2 14.8 624.3C15.7 625.2 16.7 626.2 17.7 627.2C17.7 627.6 17.7 627.9 17.7 628.3C17 627.6 16.3 627 15.6 626.3C15.1 625.8 14.6 625.3 14.2 624.9C13 626.1 11.8 627.3 10.7 628.4C10.7 628.4 10.8 628.5 10.9 628.6C13.1 630.8 15.3 633 17.5 635.2C17.6 635.3 17.7 635.3 17.8 635.4C17.8 635.8 17.8 636.2 17.8 636.6C17.7 636.5 17.5 636.4 17.4 636.3C15.1 634 12.8 631.7 10.5 629.4C10.3 629.2 10.3 629.1 10.2 629C8.9 630.3 7.8 631.5 6.6 632.6C6.6 632.6 6.7 632.7 6.8 632.8C10.4 636.4 14 640 17.5 643.5C17.6 643.6 17.7 643.7 17.8 643.7C17.8 644.1 17.8 644.5 17.8 644.9C17.6 644.7 17.5 644.6 17.4 644.5C13.7 640.8 10.1 637.2 6.4 633.5C6.2 633.3 6.1 633.2 6.1 633.2C4.9 634.4 3.7 635.6 2.6 636.7C2.7 636.8 2.8 636.9 2.9 637C6.6 640.7 10.2 644.3 13.9 648C15.2 649.3 16.6 650.7 17.9 652C17.9 652.4 17.9 652.7 17.9 653.1C17.8 653 17.6 652.9 17.5 652.8C15.3 650.6 13.2 648.5 11 646.3C10.9 646.2 10.8 646 10.8 645.8C10.8 645.8 10.7 645.9 10.6 646C10.6 650.8 10.6 655.5 10.6 660.4C10.8 660.2 10.9 660.1 11 660C13.2 657.8 15.3 655.7 17.4 653.6C17.5 653.5 17.7 653.4 17.8 653.3C17.8 653.7 17.8 654 17.8 654.4C17.6 654.6 17.5 654.7 17.4 654.8C14.9 657.3 12.4 659.8 9.9 662.3C7.5 664.7 5.2 667 2.8 669.4C2.7 669.5 2.6 669.7 2.5 669.7C3.7 670.9 4.9 672.1 6.1 673.3C6.2 673.1 6.3 673 6.4 672.8C10.1 669.1 13.7 665.4 17.4 661.8C17.5 661.7 17.7 661.6 17.8 661.5C17.8 661.9 17.8 662.3 17.8 662.7C17.7 662.8 17.6 662.9 17.5 663C14 666.5 10.4 670.1 6.9 673.6C6.8 673.7 6.7 673.8 6.6 673.9C7.8 675.1 9 676.3 10.1 677.4C10.2 677.3 10.3 677.2 10.5 677.1C12.8 674.8 15.1 672.5 17.4 670.2C17.5 670.1 17.7 670 17.8 669.9C17.8 670.3 17.8 670.7 17.8 671.1C17.7 671.2 17.6 671.3 17.5 671.3C15.3 673.5 13.1 675.7 10.9 677.9C10.8 678 10.7 678.1 10.7 678.1C11.9 679.3 13.1 680.5 14.2 681.6C15.1 680.7 16 679.8 16.9 678.9C17.2 678.6 17.4 678.4 17.7 678.2C17.7 678.6 17.7 678.9 17.7 679.3C16.7 680.3 15.7 681.3 14.8 682.2C15.8 683.2 16.8 684.2 17.7 685.2C17.7 685.6 17.7 685.9 17.7 686.3C17.6 686.2 17.4 686.1 17.3 686C16.4 685.1 15.5 684.2 14.6 683.3C14.5 683.2 14.4 683.1 14.2 683C14.2 683.3 14.2 683.5 14.2 683.7C14.2 689.6 14.2 695.5 14.2 701.4C14.2 705.9 14.2 710.4 14.2 715C14.2 715.2 14.2 715.5 14.4 715.7C15.5 716.8 16.6 717.9 17.7 719C17.7 719.7 17.7 720.4 17.7 721.1C16.7 722.1 15.8 723.1 14.8 724.2C15.7 725.1 16.7 726.1 17.7 727.1C17.7 727.5 17.7 727.8 17.7 728.2C17 727.5 16.3 726.9 15.6 726.2C15.1 725.7 14.6 725.2 14.2 724.8C13 726 11.8 727.2 10.7 728.3C10.7 728.3 10.8 728.4 10.9 728.5C13.1 730.7 15.3 732.9 17.5 735.1C17.6 735.2 17.7 735.2 17.8 735.3C17.8 735.7 17.8 736.1 17.8 736.5C17.7 736.4 17.5 736.3 17.4 736.2C15.1 733.9 12.8 731.6 10.5 729.3C10.3 729.1 10.3 729 10.2 728.9C8.9 730.2 7.8 731.4 6.6 732.5C6.6 732.5 6.7 732.6 6.8 732.7C10.4 736.3 14 739.9 17.5 743.4C17.6 743.5 17.7 743.6 17.8 743.6C17.8 744 17.8 744.4 17.8 744.8C17.6 744.6 17.5 744.5 17.4 744.4C13.7 740.7 10.1 737.1 6.4 733.4C6.2 733.2 6.1 733.1 6.1 733.1C4.9 734.3 3.7 735.5 2.6 736.6C2.7 736.7 2.8 736.8 2.9 736.9C6.6 740.6 10.2 744.2 13.9 747.9C15.2 749.2 16.6 750.6 17.9 751.9C17.9 752.3 17.9 752.6 17.9 753C17.8 752.9 17.6 752.8 17.5 752.7C15.3 750.5 13.2 748.4 11 746.2C10.9 746.1 10.8 745.9 10.8 745.7C10.8 745.7 10.7 745.8 10.6 745.9C10.6 750.7 10.6 755.4 10.6 760.2C10.6 760.2 10.7 760.2 10.7 760.3C10.8 760.2 10.9 760 11 759.9C13.2 757.7 15.3 755.6 17.4 753.5C17.5 753.4 17.7 753.3 17.8 753.2C17.8 753.6 17.8 753.9 17.8 754.3C17.6 754.5 17.5 754.6 17.4 754.7C14.9 757.2 12.4 759.7 9.9 762.2C7.5 764.6 5.2 766.9 2.8 769.3C2.7 769.4 2.6 769.6 2.5 769.6C3.7 770.8 4.9 772 6.1 773.2C6.2 773 6.3 772.9 6.4 772.7C10.1 769 13.7 765.3 17.4 761.7C17.5 761.6 17.7 761.5 17.8 761.4C17.8 761.8 17.8 762.2 17.8 762.6C17.7 762.7 17.6 762.8 17.5 762.9C14 766.4 10.4 770 6.9 773.5C6.8 773.6 6.7 773.7 6.6 773.8C7.8 775 9 776.2 10.1 777.3C10.2 777.2 10.3 777.1 10.5 777C12.8 774.7 15.1 772.4 17.4 770.1C17.5 770 17.7 769.9 17.8 769.8C17.8 770.2 17.8 770.6 17.8 771C17.7 771.1 17.6 771.2 17.5 771.2C15.3 773.4 13.1 775.6 10.9 777.8C10.8 777.9 10.7 778 10.7 778C11.9 779.2 13.1 780.4 14.2 781.5C15.1 780.6 16 779.7 16.9 778.8C17.2 778.5 17.4 778.3 17.7 778.1C17.7 778.5 17.7 778.8 17.7 779.2C16.7 780.2 15.7 781.2 14.8 782.1C15.8 783.1 16.8 784.1 17.7 785.1C17.7 785.5 17.7 785.8 17.7 786.2C17.6 786.1 17.4 786 17.3 785.9C16.4 785 15.5 784.1 14.6 783.2C14.5 783.1 14.4 783 14.2 782.9C14.2 783.2 14.2 783.4 14.2 783.6C14.2 789.5 14.2 795.4 14.2 801.3C14.2 805.8 14.2 810.3 14.2 814.9C14.2 815.1 14.2 815.4 14.4 815.6C15.5 816.7 16.6 817.8 17.7 818.9C17.7 819.6 17.7 820.3 17.7 821C16.7 822 15.8 823 14.8 824.1C15.7 825 16.7 826 17.7 827C17.7 827.4 17.7 827.7 17.7 828.1C17 827.4 16.3 826.8 15.6 826.1C15.1 825.6 14.6 825.1 14.2 824.7C13 825.9 11.8 827.1 10.7 828.2C10.7 828.2 10.8 828.3 10.9 828.4C13.1 830.6 15.3 832.8 17.5 835C17.6 835.1 17.7 835.1 17.8 835.2C17.8 835.6 17.8 836 17.8 836.4C17.7 836.3 17.5 836.2 17.4 836.1C15.1 833.8 12.8 831.5 10.5 829.2C10.3 829 10.3 828.9 10.2 828.8C8.9 830.1 7.8 831.3 6.6 832.4C6.6 832.4 6.7 832.5 6.8 832.6C10.4 836.2 14 839.8 17.5 843.3C17.6 843.4 17.7 843.5 17.8 843.5C17.8 843.9 17.8 844.3 17.8 844.7C17.6 844.5 17.5 844.4 17.4 844.3C13.7 840.6 10.1 837 6.4 833.3C6.2 833.1 6.2 833 6.1 832.9C4.8 834.2 3.7 835.3 2.4 836.6C2.5 836.7 2.6 836.8 2.7 836.9C5.3 839.5 7.9 842.1 10.4 844.6C10.5 844.7 10.6 844.9 10.7 845C10.3 845 9.9 845 9.5 845C9.4 844.9 9.3 844.7 9.2 844.6C8.4 843.8 7.6 843 6.8 842.2C6.7 842 6.6 841.9 6.5 841.7C6.4 841.7 6.3 841.8 6.3 841.9C6.3 842.9 6.3 844 6.3 845.1C6 845.1 5.8 845.1 5.5 845.1C5.5 843.8 5.5 842.6 5.5 841.3C5.5 841.1 5.4 840.8 5.3 840.7C4.3 839.7 3.4 838.7 2.4 837.8C2.2 836 2.2 836 2 835.9C2 836.2 2 836.3 2 836.5C2 838.8 2 841.1 2 843.4C1.6 843.4 1.2 843.4 0.8 843.4C0.8 843 0.8 842.6 0.8 842.1C0.9 842.1 1 842.2 1.1 842.3C1.1 840.1 1.1 837.9 1.1 835.7C0.9 835.7 0.9 835.8 0.8 835.9C0.8 835.2 0.8 834.6 0.8 833.9C1 834.1 1.2 834.3 1.4 834.4C2.6 833.2 3.8 832 4.9 830.9C3.6 829.6 2.2 828.2 0.9 826.7C0.9 826.3 0.9 826 0.9 825.6C1 825.7 1.2 825.8 1.3 825.9C2.6 827.2 4 828.6 5.3 829.9C5.4 830 5.5 830.1 5.6 830.2C6.8 829 8 827.8 9.2 826.6C8.9 826.3 8.5 826 8.2 825.7C5.8 823.3 3.3 820.8 0.9 818.4C0.9 818 0.9 817.7 0.9 817.3C1.1 817.4 1.2 817.5 1.3 817.6C4 820.3 6.7 823 9.5 825.8C9.6 825.9 9.7 826 9.8 826.1C11 824.9 12.2 823.7 13.4 822.5C9.3 818.4 5.1 814.3 1 810.1C1 809.7 1 809.4 1 809C1.2 809.1 1.3 809.2 1.5 809.4C5.6 813.5 9.7 817.6 13.8 821.7C13.9 821.8 14.1 821.9 14.1 822C15.3 820.8 16.5 819.6 17.6 818.5C12.3 813.2 6.9 807.8 1.5 802.4C1.4 802.5 1.2 802.6 1.1 802.7C1.1 802.3 1.1 802 1.1 801.6C1.1 801.5 1.2 801.3 1.2 801.2C1.2 799 1.2 796.8 1.2 794.7C1.2 794.6 1.2 794.4 1.1 794.3C1.1 793.6 1.1 792.9 1.1 792.2C1.3 792.4 1.4 792.5 1.6 792.6C5.6 788.6 9.6 784.6 13.5 780.7C12.4 779.5 11.2 778.4 10 777.2C7.3 779.9 4.5 782.7 1.7 785.6C1.5 785.4 1.4 785.3 1.2 785.2C1.2 784.8 1.2 784.5 1.2 784.1C1.4 784.2 1.5 784.3 1.7 784.4C4.3 781.8 6.9 779.2 9.4 776.7C8.2 775.5 7.1 774.4 5.9 773.2C4.6 774.5 3.1 776 1.7 777.4C1.5 777.3 1.4 777.2 1.2 777.1C1.2 776.7 1.2 776.3 1.2 775.9C1.4 776 1.5 776.2 1.7 776.2C2.9 775 4.1 773.8 5.3 772.6C4.2 771.5 3 770.3 1.8 769.1C1.6 769.3 1.5 769.4 1.3 769.6C1.3 768.9 1.3 768.2 1.3 767.5C1.4 767.6 1.5 767.6 1.7 767.7C1.7 767.4 1.7 767.3 1.7 767.1C1.7 765.1 1.7 763 1.7 761C1.7 760.7 1.6 760.5 1.3 760.3C1.3 759.9 1.3 759.6 1.3 759.2C1.4 759.2 1.5 759.3 1.7 759.4C1.7 759.2 1.7 759 1.7 758.9C1.7 756.9 1.7 754.9 1.7 752.9C1.7 752.6 1.7 752.3 1.3 752.1C1.3 751.7 1.3 751.4 1.3 751C1.4 751 1.5 751.1 1.7 751.2C1.7 751 1.7 750.8 1.7 750.6C1.7 748.6 1.7 746.6 1.7 744.6C1.7 744.3 1.7 743.9 1.3 743.8C1.3 743.4 1.3 743.1 1.3 742.7C1.4 742.7 1.5 742.8 1.6 742.9C1.6 740.7 1.6 738.5 1.6 736.3C1.4 736.3 1.4 736.4 1.3 736.5C1.3 735.8 1.3 735.2 1.3 734.5C1.5 734.7 1.7 734.9 1.9 735C3.1 733.8 4.3 732.6 5.4 731.5C4.1 730.2 2.7 728.8 1.4 727.3C1.4 726.9 1.4 726.6 1.4 726.2C1.5 726.3 1.7 726.4 1.8 726.5C3.1 727.8 4.5 729.2 5.8 730.5C5.9 730.6 6 730.7 6.1 730.8C7.3 729.6 8.5 728.4 9.7 727.2C9.4 726.9 9 726.6 8.7 726.3C6.3 723.9 3.8 721.4 1.4 719C1.4 718.6 1.4 718.3 1.4 717.9C1.6 718 1.7 718.1 1.8 718.2C4.5 720.9 7.2 723.6 10 726.4C10.1 726.5 10.2 726.6 10.3 726.7C11.5 725.5 12.7 724.3 13.9 723.2C9.8 719.1 5.6 715 1.5 710.8C1.5 710.4 1.5 710.1 1.5 709.7C1.7 709.8 1.8 709.9 2 710.1C6.1 714.2 10.2 718.3 14.3 722.4C14.4 722.5 14.6 722.6 14.6 722.7C15.8 721.5 17 720.3 18.1 719.2C12 713.4 6.6 708 1.2 702.7C1.1 702.8 0.9 702.9 0.8 703C0.8 702.6 0.8 702.3 0.8 701.9C0.8 701.8 0.9 701.6 0.9 701.5C0.9 699.3 0.9 697.1 0.9 695C0.9 694.9 0.9 694.7 0.8 694.6C0.8 693.9 0.8 693.2 0.8 692.5C1 692.7 1.1 692.8 1.3 692.9C5.3 688.9 9.3 684.9 13.2 681C12 679.8 10.9 678.7 9.7 677.5C7 680.2 4.2 683 1.4 685.9C0.2 685.4 7.45058e-09 685.2 -0.1 685.1ZM1.1 767.1C1.2 767.1 1.2 767.1 1.3 767C2.3 766 3.3 765 4.3 764C4.4 763.9 4.5 763.7 4.5 763.5C4.5 755.6 4.5 747.7 4.5 739.7C4.5 739.5 4.4 739.3 4.3 739.2C3.3 738.2 2.3 737.2 1.3 736.2C1.3 736.2 1.2 736.2 1.1 736.1C1.1 746.4 1.1 756.7 1.1 767.1ZM1.1 436.6C1.1 447 1.1 457.3 1.1 467.7C1.2 467.7 1.3 467.6 1.3 467.6C2.3 466.6 3.3 465.6 4.3 464.6C4.4 464.5 4.5 464.3 4.5 464.1C4.5 456.2 4.5 448.3 4.5 440.4C4.5 440.2 4.5 440.1 4.4 439.9C3.3 438.8 2.3 437.8 1.1 436.6ZM1.1 667.3C1.2 667.3 1.3 667.2 1.3 667.2C2.3 666.2 3.3 665.2 4.3 664.2C4.4 664.1 4.5 663.9 4.5 663.7C4.5 655.8 4.5 647.9 4.5 640C4.5 639.8 4.4 639.5 4.2 639.3C3.3 638.3 2.4 637.4 1.4 636.5C1.3 636.4 1.2 636.3 1.1 636.3C1.1 646.6 1.1 656.9 1.1 667.3ZM1.1 536.4C1.1 546.8 1.1 557.1 1.1 567.5C1.2 567.5 1.2 567.5 1.3 567.4C2.3 566.4 3.3 565.4 4.4 564.3C4.5 564.2 4.6 564 4.6 563.8C4.6 555.9 4.6 548 4.6 540.1C4.6 539.9 4.6 539.8 4.5 539.6C3.3 538.6 2.3 537.6 1.1 536.4ZM12.4 781.7C11.4 782.7 10.4 783.7 9.4 784.7C9.2 784.9 9.1 785.2 9.1 785.4C9.1 793.4 9.1 801.3 9.1 809.3C9.1 809.5 9.2 809.8 9.4 810C10.3 810.9 11.2 811.8 12.1 812.7C12.2 812.8 12.3 812.9 12.4 813C12.4 802.5 12.4 792.1 12.4 781.7ZM12.4 513.6C12.4 503.1 12.4 492.8 12.4 482.3C11.4 483.3 10.5 484.2 9.5 485.2C9.2 485.5 9.1 485.8 9.1 486.2C9.1 493.9 9.1 501.7 9.1 509.4C9.1 510.1 9.3 510.6 9.8 511.1C10.7 511.8 11.5 512.7 12.4 513.6ZM12.3 613.4C12.3 602.9 12.3 592.6 12.3 582.1C11.3 583.1 10.4 584 9.4 585C9.1 585.3 9 585.6 9 586C9 593.3 9 600.7 9 608C9 608.7 8.8 609.5 9.1 610.1C9.4 610.7 10 611.1 10.5 611.6C11.2 612.2 11.7 612.8 12.3 613.4ZM12.4 681.9C11.4 682.9 10.6 683.8 9.6 684.7C9.2 685 9.1 685.4 9.1 685.9C9.1 687.8 9.1 689.8 9.1 691.7C9.1 697.6 9.1 703.5 9.1 709.3C9.1 709.7 9.2 710 9.5 710.2C10.2 710.9 11 711.7 11.7 712.4C11.9 712.6 12.1 712.9 12.3 713.1L12.4 713C12.4 702.7 12.4 692.3 12.4 681.9ZM8.1 609.2L8.2 609.1C8.2 601.5 8.2 593.9 8.2 586.3C8.1 586.3 8.1 586.3 8 586.4C7 587.4 6 588.4 5.1 589.3C5 589.4 5 589.7 5 589.8C5 595 5 600.3 5 605.5C5 605.7 5.1 606 5.3 606.2C6 607 6.8 607.7 7.5 608.4C7.7 608.7 7.9 609 8.1 609.2ZM8.2 509.5C8.2 501.8 8.2 494.2 8.2 486.5C8 486.7 7.9 486.7 7.8 486.8C7 487.6 6.2 488.4 5.4 489.2C5.1 489.5 4.9 489.9 4.9 490.3C4.9 495.2 4.9 500 4.9 504.8C4.9 505.8 5.1 506.5 5.9 507.1C6.7 507.9 7.4 508.6 8.2 509.5ZM8.1 709C8.1 709 8.2 708.9 8.3 708.9C8.3 701.3 8.3 693.7 8.3 686.1C8.2 686.1 8.2 686.1 8.1 686.2C7.1 687.2 6.1 688.2 5.2 689.1C5 689.3 5 689.5 5 689.6C5 694.9 5 700.1 5 705.4C5 705.6 5.1 705.8 5.3 706C5.9 706.7 6.5 707.2 7.1 707.9C7.4 708.3 7.8 708.6 8.1 709ZM8.2 785.9C8.1 785.9 8.1 785.9 8 786C7 787 6 788 5.1 788.9C5 789 5 789.3 5 789.4C5 794.6 5 799.9 5 805.1C5 805.3 5.1 805.6 5.3 805.8C6 806.6 6.8 807.3 7.5 808C7.7 808.2 7.9 808.5 8.2 808.8L8.3 808.7C8.2 801.1 8.2 793.5 8.2 785.9ZM5.4 640.4C5.4 648 5.4 655.5 5.4 663.1C6.4 662.1 7.4 661.1 8.4 660.1C8.5 660 8.6 659.8 8.6 659.6C8.6 654.4 8.6 649.2 8.6 644C8.6 643.8 8.6 643.7 8.4 643.5C7.4 642.5 6.5 641.5 5.4 640.4ZM5.4 540.7C5.4 548.3 5.4 555.8 5.4 563.3C6.4 562.3 7.4 561.3 8.4 560.3C8.5 560.2 8.6 560 8.6 559.8C8.6 554.6 8.6 549.4 8.6 544.2C8.6 544 8.6 543.9 8.4 543.7C7.4 542.7 6.4 541.7 5.4 540.7ZM5.3 762.9C5.4 762.8 5.5 762.8 5.5 762.7C6.4 761.8 7.4 760.9 8.3 759.9C8.4 759.8 8.5 759.5 8.5 759.3C8.5 754.1 8.5 749 8.5 743.8C8.5 743.6 8.4 743.3 8.2 743.1C7.4 742.2 6.5 741.4 5.6 740.5C5.5 740.4 5.4 740.3 5.3 740.3C5.3 747.8 5.3 755.3 5.3 762.9ZM5.4 463.5C6.5 462.4 7.5 461.5 8.4 460.5C8.5 460.4 8.6 460.2 8.6 460C8.6 454.8 8.6 449.6 8.6 444.5C8.6 444.3 8.5 444 8.3 443.8C7.6 443.1 6.9 442.4 6.1 441.6C5.9 441.4 5.7 441.1 5.5 440.9L5.4 441C5.4 448.5 5.4 455.9 5.4 463.5ZM4.1 690.2C3.9 690.4 3.8 690.4 3.8 690.5C2.9 691.4 2 692.2 1.2 693.2C1 693.4 0.9 693.7 0.9 693.9C0.9 696.4 0.9 698.8 0.9 701.3C0.9 701.5 1 701.8 1.2 702C2 702.9 3 703.8 3.8 704.7C3.9 704.8 4 704.9 4.1 705C4.1 699.9 4.1 695.1 4.1 690.2ZM4.1 605.1C4.1 600.2 4.1 595.4 4.1 590.5C4 590.6 3.9 590.6 3.9 590.7C2.9 591.7 2 592.6 1 593.6C0.9 593.7 0.8 593.9 0.8 594.1C0.8 596.6 0.8 599.1 0.8 601.5C0.8 601.7 0.9 602 1.1 602.1C1.9 603 2.8 603.8 3.7 604.7C3.8 604.8 3.9 604.9 4.1 605.1ZM4.1 490.7C4 490.7 3.9 490.8 3.9 490.8C2.9 491.8 1.9 492.8 1 493.7C0.9 493.8 0.8 494 0.8 494.2C0.8 496.7 0.8 499.1 0.8 501.6C0.8 501.8 0.9 502.1 1.1 502.3C2 503.2 2.9 504.1 3.8 505C3.9 505.1 4 505.2 4.1 505.2C4.1 500.4 4.1 495.6 4.1 490.7ZM4.1 804.6C4.1 799.7 4.1 794.9 4.1 790C4 790.1 3.9 790.1 3.9 790.2C2.9 791.2 2 792.1 1 793.1C0.9 793.2 0.8 793.4 0.8 793.6C0.8 796.1 0.8 798.6 0.8 801C0.8 801.2 0.9 801.5 1.1 801.6C1.9 802.5 2.8 803.3 3.7 804.2C3.8 804.3 3.9 804.4 4.1 804.6Z" fill="#9DD4D2"/>
</svg>
